<svg xmlns="http://www.w3.org/2000/svg" viewBox="0 0 28 28">
  <path fill="#000000" fill-rule="evenodd" d="M10.8 2.6C5.9 3.7 3.1 8.5 4.2 13.7c.9 4.4 4.3 7.2 8.2 7.3l-1.2 4.1c-.2.7.2 1.5.9 1.7l2.7.8c.7.2 1.5-.2 1.7-.9l1.2-4.1c3.3 2 7.4 1.3 9.4-1.9 2.7-4.2-.3-9.7-4.5-13.5-3.4-3.1-7.8-5.6-11.8-4.6Zm.8 3.5c2.3-.5 5.5.9 8.6 3.8 3.3 3 4.9 6.6 3.9 8.3-1 1.5-3.8 1.5-6.2-.9-.5-.5-1.4-.6-2-.2-3 2-7.1.7-8-4.1-.7-3.5 1-6.2 3.7-6.9Zm1.2 4.2a1.3 1.3 0 1 1-2.6 0 1.3 1.3 0 0 1 2.6 0Zm4.6 1.4a1.3 1.3 0 1 1-2.6 0 1.3 1.3 0 0 1 2.6 0Zm-5.8 4.1a1.3 1.3 0 1 1-2.6 0 1.3 1.3 0 0 1 2.6 0Zm5.4 1.2a1.3 1.3 0 1 1-2.6 0 1.3 1.3 0 0 1 2.6 0Zm-1.1 4.8-1.2 4-2.1-.6 1.3-4.2c.7.2 1.4.5 2 .8Z"/>
  <circle cx="22.5" cy="5.3" r="3.3" fill="#000000"/>
</svg>
